<svg version="1.1" id="Layer_1" xmlns="http://www.w3.org/2000/svg" xmlns:xlink="http://www.w3.org/1999/xlink" x="0px" y="0px"
	 width="100%" viewBox="0 0 1024 1024" xml:space="preserve">
<path fill="#668099" fill-rule="evenodd" opacity="1.000000" stroke="none"
	d="
M182.000000,193.000000 
	C252.332352,193.000000 322.167999,192.615051 391.995178,193.215271 
	C415.450043,193.416901 438.592773,197.720428 461.187286,204.533600 
	C476.792328,209.239136 491.885040,215.303497 505.310730,224.356903 
	C516.978210,232.224670 528.310303,241.048859 538.152161,251.060913 
	C554.381958,267.571350 565.720398,287.483490 571.401733,310.085052 
	C574.064636,320.678955 575.523071,331.616455 576.937378,342.475037 
	C579.945862,365.573517 576.298035,387.997711 569.051331,409.929230 
	C563.634766,426.321747 554.592529,440.599457 543.700317,453.923370 
	C531.814270,468.462952 517.004944,479.247650 500.398193,489.299957 
	C504.839355,491.474304 508.759705,493.637238 512.864563,495.360565 
	C529.213196,502.224152 543.481812,512.231506 557.086121,523.469727 
	C573.801025,537.277527 586.116882,554.283142 595.281677,573.722595 
	C601.247742,586.377136 604.979187,599.744385 606.956909,613.569763 
	C608.165588,622.018372 609.738770,630.517761 609.789001,639.002441 
	C609.849365,649.191284 608.630005,659.404968 607.631348,669.575134 
	C607.170349,674.270081 606.106750,678.933228 604.990356,683.531616 
	C600.949707,700.175964 595.350464,716.128784 586.180054,730.841248 
	C578.619934,742.970337 570.008789,754.051025 559.662842,763.876892 
	C546.165527,776.695740 530.591370,786.311707 513.737610,793.942871 
	C512.265503,794.609375 509.792664,794.390076 508.344269,793.580750 
	C493.149994,785.091064 477.542938,777.542114 463.496338,766.798218 
	C449.557434,756.136719 436.192902,745.041016 424.080566,732.442078 
	C418.379272,726.511658 413.408264,719.879272 407.406097,712.731079 
	C413.893280,710.999268 419.256927,709.406616 424.697632,708.147034 
	C437.855225,705.100708 449.568054,699.020081 460.331604,691.094849 
	C477.517426,678.441040 485.203705,661.026123 487.300873,639.989746 
	C488.484161,628.120178 487.182831,616.543762 484.180084,605.723938 
	C479.246857,587.948120 467.694946,574.152161 451.387787,564.729126 
	C437.285767,556.580383 422.002563,552.191406 406.006256,550.032166 
	C401.279114,549.394043 396.479370,549.169189 391.704865,549.029907 
	C377.434509,548.613525 363.160950,548.092529 348.887207,548.045898 
	C308.680115,547.914551 268.472260,547.960938 228.264923,548.043823 
	C222.491516,548.055725 216.722672,548.795776 210.945374,548.933960 
	C207.140915,549.024963 203.325089,548.640930 199.000031,548.446533 
	C199.000031,551.233948 199.000031,553.035156 199.000031,554.836304 
	C199.000031,606.002258 198.999161,657.168213 199.001083,708.334167 
	C199.001328,714.989990 199.008057,714.998413 205.498093,714.998657 
	C261.497314,715.000977 317.496582,715.036377 373.495575,714.924255 
	C377.557404,714.916138 379.886169,716.252991 382.436096,719.536865 
	C389.758514,728.967163 397.571655,738.038513 405.545502,746.934021 
	C412.242645,754.405212 418.817719,762.192688 426.553223,768.478577 
	C438.603790,778.270996 451.535645,786.988708 464.212555,795.995056 
	C468.596130,799.109375 473.333221,801.726135 479.377655,805.483032 
	C474.143585,807.591248 470.120819,810.037659 465.800354,810.802734 
	C450.491272,813.513672 435.128906,816.068298 419.690887,817.853333 
	C409.845154,818.991760 399.830536,818.949585 389.891327,818.956604 
	C288.892822,819.027710 187.894211,819.000366 86.895630,818.999329 
	C80.006783,818.999268 80.000908,818.994629 80.000870,812.231689 
	C79.999832,607.901245 80.000008,403.570770 80.000015,199.240311 
	C80.000015,197.420578 80.000023,195.600845 80.000023,193.000000 
	C114.003716,193.000000 147.751862,193.000000 182.000000,193.000000 
M237.500000,296.000000 
	C226.667648,296.000031 215.827148,296.246552 205.006561,295.889832 
	C200.044479,295.726257 198.890778,297.457977 198.906311,302.160553 
	C199.060944,348.989380 199.000092,395.818909 199.000092,442.648254 
	C199.000092,444.284454 199.000092,445.920685 199.000092,448.000031 
	C204.111893,448.000031 208.765488,448.000061 213.419098,448.000061 
	C258.748566,448.000061 304.078613,448.127838 349.407043,447.909363 
	C360.616821,447.855316 371.870941,447.132324 383.016785,445.913055 
	C401.625549,443.877411 419.295746,438.773895 434.293823,426.894928 
	C443.900085,419.286407 450.721832,409.528992 454.393463,397.855377 
	C458.553772,384.628082 459.151825,371.071350 457.028290,357.351624 
	C454.560944,341.410248 447.173401,327.917145 434.992432,317.791138 
	C416.762299,302.636475 394.629669,296.592438 371.485168,296.211884 
	C327.167572,295.483154 282.829559,296.000000 237.500000,296.000000 
z"/>
<path fill="#8C9292" opacity="1.000000" stroke="none" 
	d="
M575.841553,819.052002 
	C563.321533,816.086792 551.295166,812.940491 539.006348,807.358704 
	C578.790588,784.502686 606.513123,752.514465 622.758850,710.174622 
	C644.831482,717.847839 667.946838,717.818176 690.976685,716.775696 
	C702.659180,716.246826 714.287842,713.660034 725.848572,711.507996 
	C745.200378,707.905579 763.430786,700.787292 780.818237,691.809326 
	C791.368469,686.361694 801.219727,679.537659 811.226929,673.086853 
	C812.616394,672.191223 813.875183,669.888855 813.882874,668.231689 
	C814.036743,635.079285 813.997803,601.925903 813.997803,568.000000 
	C811.881836,568.000000 809.965942,568.000000 808.050049,568.000000 
	C761.388062,567.999939 714.725830,567.931702 668.064453,568.102356 
	C663.232849,568.119995 661.866760,566.747437 661.896484,561.927063 
	C662.095642,529.598206 662.077209,497.267120 661.910461,464.937897 
	C661.887512,460.486450 662.879456,458.886841 667.699219,458.894806 
	C754.856873,459.039276 842.014954,459.034363 929.172668,458.904205 
	C933.794250,458.897308 935.104370,460.160004 935.097229,464.809387 
	C934.964600,551.300476 934.960693,637.791931 935.068665,724.283081 
	C935.078125,731.848450 929.010559,734.849426 924.652283,738.419617 
	C912.016479,748.770752 899.124634,758.980347 885.393188,767.778320 
	C869.470825,777.980042 852.933594,787.410278 835.942749,795.698120 
	C821.799194,802.596924 806.759033,807.777100 791.853821,812.965088 
	C772.106384,819.838562 751.672119,824.185181 730.958191,826.924744 
	C719.723389,828.410645 708.386658,829.289917 697.066895,829.924316 
	C684.984924,830.601318 672.811462,831.562195 660.780640,830.793091 
	C642.131592,829.600891 623.528564,827.361206 604.987549,824.941467 
	C595.322327,823.680054 585.831238,821.083984 575.841553,819.052002 
z"/>
<path fill="#8C9292" opacity="1.000000" stroke="none" 
	d="
M625.377502,298.293457 
	C616.841003,300.727234 608.588745,302.683838 600.561035,305.323242 
	C597.380554,306.368927 596.029968,305.834930 595.037109,302.929474 
	C587.536804,280.980682 577.180725,260.411072 562.505554,242.484848 
	C554.848022,233.130920 545.181702,225.402252 536.263489,217.110840 
	C533.450684,214.495712 530.120972,212.436554 526.093933,209.424423 
	C536.850220,205.453812 546.720947,201.360062 556.872864,198.157913 
	C576.937805,191.829025 597.426331,187.297501 618.219360,183.863449 
	C645.020813,179.437088 671.999390,179.228012 698.919983,180.253983 
	C720.797302,181.087738 742.430237,184.819962 763.899658,189.725754 
	C789.965820,195.681900 814.975281,204.372147 838.854614,216.111282 
	C861.344299,227.167282 882.411133,240.654541 901.542603,256.994293 
	C904.402405,259.436768 907.500427,261.598358 910.432007,263.959656 
	C912.715820,265.799225 913.950134,267.465393 911.321106,270.451416 
	C905.365967,277.215027 899.906677,284.412415 894.131714,291.338287 
	C885.291382,301.940216 876.388855,312.490906 867.449219,323.009277 
	C859.350403,332.538208 851.163513,341.992188 843.021790,351.484650 
	C840.560181,354.354645 838.119446,357.242615 835.455994,360.372925 
	C830.039551,355.848663 824.862244,351.608978 819.777100,347.261536 
	C801.075928,331.273346 780.256531,318.714569 757.258423,310.118652 
	C744.186462,305.232788 730.690613,301.383301 717.210083,297.711639 
	C697.392822,292.314026 677.003113,292.142242 656.716003,293.222748 
	C646.337585,293.775513 636.069580,296.401154 625.377502,298.293457 
z"/>
<path fill="#8C9292" opacity="1.000000" stroke="none" 
	d="
M341.311859,576.654785 
	C340.521362,572.901123 342.148560,571.936890 345.319061,571.958984 
	C359.303741,572.056396 373.307556,571.553284 387.270294,572.115417 
	C404.146362,572.794800 420.884613,575.269592 436.093231,583.128113 
	C454.242645,592.506165 463.217529,608.039490 463.981628,628.350769 
	C464.304016,636.920044 463.805725,645.279419 460.359253,653.460754 
	C456.148224,663.457031 449.163422,670.766785 440.218719,676.255127 
	C425.567657,685.244873 409.207184,688.741821 392.282898,689.924438 
	C390.913208,690.020203 388.892517,689.148560 388.109497,688.056213 
	C373.263397,667.344604 362.046722,644.727051 354.110657,620.574463 
	C349.397034,606.229004 345.688019,591.553406 341.311859,576.654785 
z"/>
<path fill="#668099" opacity="1.000000" stroke="none"
	d="
M407.436218,712.338867
	C407.706177,712.313477 407.802094,712.426392 407.897980,712.539368
	C407.686066,712.518616 407.474121,712.497925 407.436218,712.338867
z"/>
<path fill="#8C9292" opacity="1.000000" stroke="none" 
	d="
M367.999451,358.003204 
	C374.374084,347.130157 380.561218,336.557739 387.089294,326.200134 
	C388.079895,324.628479 390.909149,322.871277 392.456299,323.204407 
	C406.643860,326.259369 419.185547,332.516205 427.381744,344.978302 
	C434.493164,355.791138 435.891632,367.828827 434.291931,380.725372 
	C432.666718,393.827393 426.286285,403.365967 415.838135,410.609711 
	C407.944092,416.082703 399.041931,419.626587 389.619354,420.848877 
	C377.238281,422.455017 364.717987,422.981659 352.261078,424.014801 
	C349.698181,424.227356 347.150726,424.626282 343.552338,425.067230 
	C349.483643,401.555573 356.907837,379.332031 367.999451,358.003204 
z"/>
</svg>